Coordinates
version=1
nRows=22
nColumns=24
inDegrees=yes

Units are S.I. units (second, meters, Newtons, ...)
Angles are in degrees.

endheader
time	pelvis_tilt	pelvis_list	pelvis_rotation	pelvis_tx	pelvis_ty	pelvis_tz	hip_flexion_r	hip_adduction_r	hip_rotation_r	knee_angle_r	ankle_angle_r	subtalar_angle_r	mtp_angle_r	hip_flexion_l	hip_adduction_l	hip_rotation_l	knee_angle_l	ankle_angle_l	subtalar_angle_l	mtp_angle_l	lumbar_extension	lumbar_bending	lumbar_rotation
      1.88783333	      2.23817085	      3.10182010	     -5.42250326	      1.45564152	      1.02186364	      0.24136368	     15.85324125	     -6.37334939	     -5.28032484	    -56.61200244	      9.54017892	    -16.56740388	     -4.21810992	      9.65905786	      8.75946667	     -0.12460527	    -22.43056429	     12.11146894	    -11.35737949	     -1.53427873	     -0.94797207	     -4.85217156	      4.45929217
      1.89200000	      2.19141716	      3.04575393	     -5.26790756	      1.45979675	      1.02219454	      0.24095082	     16.42846180	     -6.23872678	     -5.27647207	    -55.99331263	      9.68168160	    -16.65363422	     -4.33539318	      9.35150625	      8.75136873	      0.03196002	    -22.26009135	     12.24307621	    -11.30678277	     -1.57389730	     -0.97649038	     -4.78258075	      4.04628786
      1.89616667	      2.15904051	      2.99184530	     -5.12119478	      1.46390774	      1.02251016	      0.24055867	     16.98413176	     -6.10658061	     -5.25887445	    -55.35403889	      9.82503099	    -16.66354329	     -4.38533909	      9.03544091	      8.74503914	      0.18251360	    -22.09987695	     12.36811412	    -11.27008186	     -1.58885686	     -1.03219993	     -4.71383832	      3.92002832
      1.90033333	      2.12935101	      2.94725524	     -4.98817441	      1.46807953	      1.02280269	      0.24020284	     17.52440372	     -5.97770531	     -5.21435980	    -54.68805936	      9.91277730	    -16.67641083	     -4.48227223	      8.70892619	      8.74550927	      0.32236627	    -21.91977342	     12.47343220	    -11.22584117	     -1.62379709	     -1.07223451	     -4.67044653	      3.61579820
      1.90450000	      2.07606544	      2.90092344	     -4.85481202	      1.47217809	      1.02302058	      0.23985553	     18.08625081	     -5.84427412	     -5.16331145	    -54.00731801	     10.01369665	    -16.63208855	     -4.51393064	      8.41927773	      8.74295878	      0.47167473	    -21.75855619	     12.58835305	    -11.20754590	     -1.63565016	     -1.09590050	     -4.61062338	      3.51248026
      1.90866667	      2.00973191	      2.84854810	     -4.72197851	      1.47632585	      1.02319727	      0.23952707	     18.64536664	     -5.70050616	     -5.10491884	    -53.29423949	     10.06657664	    -16.57805103	     -4.54451847	      8.14612926	      8.73080529	      0.61740865	    -21.60635629	     12.69713274	    -11.20636915	     -1.64854135	     -1.09905935	     -4.54695416	      3.34583457
      1.91283333	      1.97637430	      2.80869530	     -4.60823962	      1.48045639	      1.02338771	      0.23923353	     19.16500796	     -5.56975802	     -5.02410933	    -52.56415893	     10.10125752	    -16.49807443	     -4.56044092	      7.82929554	      8.73385718	      0.75754116	    -21.43206069	     12.80940356	    -11.19156816	     -1.65571031	     -1.11333720	     -4.50011102	      3.21848638
      1.91700000	      1.89049628	      2.76554653	     -4.45738914	      1.48455126	      1.02347263	      0.23890739	     19.72621105	     -5.43675604	     -4.96152394	    -51.81225159	     10.10544621	    -16.40010081	     -4.60118384	      7.59235544	      8.73537835	      0.95034916	    -21.30114301	     12.88447166	    -11.23942827	     -1.68720850	     -1.12436012	     -4.46644516	      2.89533415
      1.92116667	      1.82993045	      2.71169042	     -4.33036792	      1.48863223	      1.02355848	      0.23863304	     20.24978530	     -5.28739907	     -4.87746073	    -51.03664342	     10.09689015	    -16.26604964	     -4.61178444	      7.33029309	      8.71946683	      1.10010067	    -21.17175280	     12.99445489	    -11.25395452	     -1.69608722	     -1.14285138	     -4.39752844	      2.79514183
      1.92533333	      1.77287528	      2.65931117	     -4.19585604	      1.49276538	      1.02362119	      0.23835604	     20.75425150	     -5.14092897	     -4.78799632	    -50.24536398	     10.06520042	    -16.11645817	     -4.61839786	      7.05833797	      8.70927358	      1.27342368	    -21.04205785	     13.09870591	    -11.29496527	     -1.70690007	     -1.15740415	     -4.34008138	      2.64088916
      1.92950000	      1.69369158	      2.62420112	     -4.05975777	      1.49688405	      1.02363173	      0.23809596	     21.27187075	     -5.01361529	     -4.69661428	    -49.43146590	     10.02479760	    -15.95886277	     -4.61847946	      6.80975027	      8.71938426	      1.47913664	    -20.90023079	     13.16330135	    -11.38898134	     -1.73034334	     -1.14222784	     -4.31067432	      2.40428909
      1.93366667	      1.61912872	      2.56537981	     -3.93293851	      1.50096506	      1.02361055	      0.23785841	     21.77051280	     -4.85795856	     -4.59577082	    -48.59140867	      9.95268669	    -15.75926341	     -4.61363249	      6.57909714	      8.69650582	      1.63470969	    -20.80840610	     13.27141261	    -11.44014560	     -1.73847519	     -1.14992330	     -4.24203082	      2.30810023
      1.93783333	      1.54930257	      2.51361411	     -3.78011443	      1.50502549	      1.02356906	      0.23760994	     22.25548671	     -4.71628479	     -4.50724308	    -47.73926999	      9.85668004	    -15.57050546	     -4.60247243	      6.33941482	      8.68563268	      1.83683763	    -20.70468695	     13.36765160	    -11.50317672	     -1.74712345	     -1.16196286	     -4.18837452	      2.16698694
      1.94200000	      1.47327703	      2.45800389	     -3.63707942	      1.50913815	      1.02351145	      0.23738751	     22.72453560	     -4.56806733	     -4.40447095	    -46.86111393	      9.74261279	    -15.35990918	     -4.58547026	      6.10457209	      8.66913609	      2.03620553	    -20.60739985	     13.45586204	    -11.59323129	     -1.75570815	     -1.15719159	     -4.12611892	      2.01991552
      1.94616667	      1.41453230	      2.42352462	     -3.49511692	      1.51324360	      1.02343795	      0.23717426	     23.16830707	     -4.44569255	     -4.29465604	    -45.97224421	      9.62757417	    -15.15955791	     -4.53364730	      5.84397977	      8.68288682	      2.27947996	    -20.48048046	     13.49559087	    -11.76651601	     -1.77555894	     -1.16114174	     -4.10544876	      1.78801784
      1.95033333	      1.32025812	      2.37809519	     -3.34061435	      1.51729715	      1.02326311	      0.23696151	     23.64399884	     -4.31697700	     -4.20119689	    -45.07227273	      9.49192115	    -14.91536841	     -4.50663327	      5.65131693	      8.67321918	      2.47360311	    -20.41872357	     13.60101193	    -11.83696521	     -1.78096494	     -1.15221051	     -4.05228911	      1.70739148
      1.95450000	      1.24904432	      2.32892329	     -3.18974025	      1.52141071	      1.02314005	      0.23676980	     24.06715445	     -4.18311634	     -4.09648343	    -44.13928037	      9.33748693	    -14.68686083	     -4.46976231	      5.41839314	      8.66203328	      2.68913344	    -20.32637476	     13.67882705	    -11.95134524	     -1.78955733	     -1.15355982	     -3.99991760	      1.58091053
      1.95866667	      1.17304982	      2.29653421	     -3.01819740	      1.52550471	      1.02296397	      0.23655974	     24.48962760	     -4.07728954	     -4.00327646	    -43.20187723	      9.17867979	    -14.47826857	     -4.38502213	      5.18848228	      8.67526666	      2.96216283	    -20.22523754	     13.71872618	    -12.14350290	     -1.80670225	     -1.13865797	     -3.98376355	      1.36279928
      1.96283333	      1.10048253	      2.25293835	     -2.86329814	      1.52959930	      1.02276742	      0.23637340	     24.89639360	     -3.96041749	     -3.91023337	    -42.24521860	      9.00850554	    -14.22330364	     -4.34180577	      4.97021852	      8.66701840	      3.16427093	    -20.16243359	     13.81992958	    -12.23412889	     -1.81392578	     -1.15405449	     -3.93524298	      1.29314370
      1.96700000	      1.02346900	      2.20796397	     -2.68409212	      1.53368098	      1.02255414	      0.23617857	     25.28906733	     -3.85130961	     -3.83440974	    -41.26671865	      8.82793758	    -13.98393042	     -4.29680989	      4.75851783	      8.65686701	      3.40311200	    -20.09948363	     13.91430562	    -12.33702443	     -1.82040709	     -1.15566673	     -3.89286611	      1.18458439
      1.97116667	      0.95085896	      2.19762977	     -2.50231476	      1.53778466	      1.02231504	      0.23598126	     25.67073187	     -3.78103397	     -3.73887105	    -40.29052464	      8.63600182	    -13.78599534	     -4.15032712	      4.52430295	      8.69359675	      3.70893417	    -19.99373442	     13.91717151	    -12.59118907	     -1.84945977	     -1.15800636	     -3.89879747	      0.92574507
      1.97533333	      0.88091680	      2.16501543	     -2.33151909	      1.54191000	      1.02205077	      0.23581068	     26.03606194	     -3.69343407	     -3.66803727	    -39.29748714	      8.47295325	    -13.52502324	     -4.10870443	      4.30694487	      8.69014539	      3.91509011	    -19.93940603	     14.04079124	    -12.64620630	     -1.85384367	     -1.16089090	     -3.87035347	      0.89354420
